<svg xmlns="http://www.w3.org/2000/svg" viewBox="0 0 128 128" role="img" aria-labelledby="title desc">
  <title id="title">Accounting desktop icon</title>
  <desc id="desc">Ledger card with currency mark for the accounting workspace.</desc>
  <defs>
    <linearGradient id="bg" x1="0%" y1="0%" x2="100%" y2="100%">
      <stop offset="0%" stop-color="#0f766e" />
      <stop offset="100%" stop-color="#14532d" />
    </linearGradient>
  </defs>
  <rect x="8" y="8" width="112" height="112" rx="24" fill="url(#bg)" />
  <rect x="28" y="24" width="72" height="80" rx="12" fill="#f8fafc" opacity="0.96" />
  <rect x="36" y="40" width="56" height="6" rx="3" fill="#94a3b8" />
  <rect x="36" y="54" width="40" height="6" rx="3" fill="#94a3b8" />
  <rect x="36" y="82" width="32" height="6" rx="3" fill="#94a3b8" />
  <circle cx="84" cy="76" r="16" fill="#16a34a" />
  <path d="M84 64v24M90 68c-1.4-1.3-3.6-2-6.1-2-4.4 0-7.4 2.2-7.4 5.4 0 3.7 3.2 4.7 7.4 5.5 4.2 0.8 7.4 1.8 7.4 5.5 0 3.3-3 5.6-7.4 5.6-2.8 0-5.3-0.8-7-2.3" fill="none" stroke="#f0fdf4" stroke-linecap="round" stroke-linejoin="round" stroke-width="4" />
  <rect x="92" y="34" width="8" height="60" rx="4" fill="#bbf7d0" opacity="0.7" />
</svg>
