<svg xmlns="http://www.w3.org/2000/svg" viewBox="0 0 128 128" role="img" aria-labelledby="title desc">
  <title id="title">Academics desktop icon</title>
  <desc id="desc">Open book and mortarboard mark for academics.</desc>
  <defs>
    <linearGradient id="tile-bg" x1="10" y1="8" x2="118" y2="120" gradientUnits="userSpaceOnUse">
      <stop offset="0" stop-color="#ffffff"/>
      <stop offset="0.58" stop-color="#faf8f4"/>
      <stop offset="1" stop-color="#edf5f7"/>
    </linearGradient>
    <filter id="soft-shadow" x="-20%" y="-20%" width="140%" height="140%">
      <feDropShadow dx="0" dy="6" stdDeviation="7" flood-color="#071019" flood-opacity="0.08"/>
    </filter>
  </defs>
  <rect x="8" y="8" width="112" height="112" rx="26" fill="url(#tile-bg)" stroke="#e2e8f0" stroke-width="1.5" filter="url(#soft-shadow)"/>
  <path d="M33 64c10-8 20-9 31-2 11-7 21-6 31 2v35c-10-7-20-8-31-1-11-7-21-6-31 1z" fill="#f4ecdd" stroke="#0b3d2b" stroke-width="4" stroke-linecap="round" stroke-linejoin="round"/>
  <path d="M64 62v36M43 76c6-2 12-1 17 2M69 78c6-2 11-2 17-1" fill="none" stroke="#0b3d2b" stroke-width="3" stroke-linecap="round" stroke-linejoin="round"/>
  <path d="M30 40l34-14 34 14-34 14z" fill="#1f7a45"/>
  <path d="M98 40v14" fill="none" stroke="#1f7a45" stroke-width="3.5" stroke-linecap="round"/>
  <circle cx="98" cy="59" r="4.5" fill="#1f7a45"/>
</svg>
