<svg xmlns="http://www.w3.org/2000/svg" viewBox="0 0 128 128" role="img" aria-labelledby="title desc">
  <title id="title">Counseling desktop icon</title>
  <desc id="desc">Conversation and support mark for counseling.</desc>
  <defs>
    <linearGradient id="tile-bg" x1="10" y1="8" x2="118" y2="120" gradientUnits="userSpaceOnUse">
      <stop offset="0" stop-color="#ffffff"/>
      <stop offset="0.58" stop-color="#faf8f4"/>
      <stop offset="1" stop-color="#edf5f7"/>
    </linearGradient>
    <filter id="soft-shadow" x="-20%" y="-20%" width="140%" height="140%">
      <feDropShadow dx="0" dy="6" stdDeviation="7" flood-color="#071019" flood-opacity="0.08"/>
    </filter>
  </defs>
  <rect x="8" y="8" width="112" height="112" rx="26" fill="url(#tile-bg)" stroke="#e2e8f0" stroke-width="1.5" filter="url(#soft-shadow)"/>
  <path d="M34 40h62a12 12 0 0 1 12 12v24a12 12 0 0 1-12 12H75l-18 16V88H34a12 12 0 0 1-12-12V52a12 12 0 0 1 12-12z" fill="#edf5f7" stroke="#0b3d2b" stroke-width="4" stroke-linecap="round" stroke-linejoin="round"/>
  <path d="M44 58h43M44 73h31" fill="none" stroke="#0b3d2b" stroke-width="3.5" stroke-linecap="round"/>
  <path d="M92 66c7-8 17-6 19 3-6 7-15 8-19-3z" fill="#1f7a45"/>
</svg>
