<svg xmlns="http://www.w3.org/2000/svg" viewBox="0 0 128 128" role="img" aria-labelledby="title desc">
  <title id="title">HR desktop icon</title>
  <desc id="desc">Person profile mark for HR.</desc>
  <defs>
    <linearGradient id="tile-bg" x1="10" y1="8" x2="118" y2="120" gradientUnits="userSpaceOnUse">
      <stop offset="0" stop-color="#ffffff"/>
      <stop offset="0.58" stop-color="#faf8f4"/>
      <stop offset="1" stop-color="#edf5f7"/>
    </linearGradient>
    <filter id="soft-shadow" x="-20%" y="-20%" width="140%" height="140%">
      <feDropShadow dx="0" dy="6" stdDeviation="7" flood-color="#071019" flood-opacity="0.08"/>
    </filter>
  </defs>
  <rect x="8" y="8" width="112" height="112" rx="26" fill="url(#tile-bg)" stroke="#e2e8f0" stroke-width="1.5" filter="url(#soft-shadow)"/>
  <path d="M36 34h56a9 9 0 0 1 9 9v42a9 9 0 0 1-9 9H36a9 9 0 0 1-9-9V43a9 9 0 0 1 9-9z" fill="#edf5f7"/>
  <circle cx="52" cy="61" r="12" fill="#1f7a45"/>
  <path d="M28 94c4-16 14-24 24-24s20 8 24 24" fill="none" stroke="#0b3d2b" stroke-width="4" stroke-linecap="round"/>
  <path d="M81 56h12M81 70h12M81 84h9" fill="none" stroke="#475569" stroke-width="4" stroke-linecap="round"/>
</svg>
