<svg xmlns="http://www.w3.org/2000/svg" viewBox="0 0 128 128" role="img" aria-labelledby="title desc">
  <title id="title">Hub desktop icon</title>
  <desc id="desc">Connected launchpad mark for the staff hub.</desc>
  <defs>
    <linearGradient id="tile-bg" x1="10" y1="8" x2="118" y2="120" gradientUnits="userSpaceOnUse">
      <stop offset="0" stop-color="#ffffff"/>
      <stop offset="0.58" stop-color="#faf8f4"/>
      <stop offset="1" stop-color="#edf5f7"/>
    </linearGradient>
    <filter id="soft-shadow" x="-20%" y="-20%" width="140%" height="140%">
      <feDropShadow dx="0" dy="6" stdDeviation="7" flood-color="#071019" flood-opacity="0.08"/>
    </filter>
  </defs>
  <rect x="8" y="8" width="112" height="112" rx="26" fill="url(#tile-bg)" stroke="#e2e8f0" stroke-width="1.5" filter="url(#soft-shadow)"/>
  <rect x="49" y="49" width="30" height="30" rx="8" fill="#edf5f7"/>
  <path d="M64 48V35M64 80v13M48 64H35M80 64h13" fill="none" stroke="#94a3b8" stroke-width="3.4" stroke-linecap="round"/>
  <path d="M53 54l11-7 11 7v17a5 5 0 0 1-5 5H58a5 5 0 0 1-5-5z" fill="none" stroke="#0b3d2b" stroke-width="4" stroke-linecap="round" stroke-linejoin="round"/>
  <path d="M59 76V65h10v11M61 56h6" fill="none" stroke="#0b3d2b" stroke-width="3" stroke-linecap="round" stroke-linejoin="round"/>
  <circle cx="64" cy="35" r="8" fill="#7e6bd6"/>
  <circle cx="35" cy="64" r="8" fill="#1f7a45"/>
  <circle cx="93" cy="64" r="8" fill="#7faa63"/>
  <circle cx="64" cy="93" r="8" fill="#b6522b"/>
</svg>
